<svg width="1024" height="1024" viewBox="0 0 1024 1024" xmlns="http://www.w3.org/2000/svg">
  <defs>
    <linearGradient id="bgGradient" x1="0%" y1="0%" x2="100%" y2="100%">
      <stop offset="0%" style="stop-color:#0d0221;stop-opacity:1" />
      <stop offset="50%" style="stop-color:#1a0633;stop-opacity:1" />
      <stop offset="100%" style="stop-color:#2d1b4e;stop-opacity:1" />
    </linearGradient>
    <linearGradient id="logoGradient" x1="0%" y1="0%" x2="100%" y2="100%">
      <stop offset="0%" style="stop-color:#00ffff;stop-opacity:1" />
      <stop offset="50%" style="stop-color:#8a2be2;stop-opacity:1" />
      <stop offset="100%" style="stop-color:#00bfff;stop-opacity:1" />
    </linearGradient>
    <filter id="glow">
      <feGaussianBlur stdDeviation="4" result="coloredBlur"/>
      <feMerge> 
        <feMergeNode in="coloredBlur"/>
        <feMergeNode in="SourceGraphic"/>
      </feMerge>
    </filter>
  </defs>
  
  <!-- Background -->
  <rect width="1024" height="1024" fill="url(#bgGradient)" rx="180" ry="180"/>
  
  <!-- Outer glow circle -->
  <circle cx="512" cy="512" r="400" fill="none" stroke="rgba(0,255,255,0.3)" stroke-width="2" opacity="0.5"/>
  <circle cx="512" cy="512" r="350" fill="none" stroke="rgba(138,43,226,0.3)" stroke-width="2" opacity="0.5"/>
  
  <!-- Main logo container -->
  <g transform="translate(512,512)">
    <!-- Central marketplace icon -->
    <circle cx="0" cy="0" r="200" fill="url(#logoGradient)" filter="url(#glow)" opacity="0.9"/>
    
    <!-- Marketplace building structure -->
    <g fill="#ffffff" filter="url(#glow)">
      <!-- Base platform -->
      <rect x="-120" y="80" width="240" height="20" rx="10"/>
      
      <!-- Columns -->
      <rect x="-100" y="0" width="20" height="100" rx="10"/>
      <rect x="-40" y="0" width="20" height="100" rx="10"/>
      <rect x="20" y="0" width="20" height="100" rx="10"/>
      <rect x="80" y="0" width="20" height="100" rx="10"/>
      
      <!-- Roof -->
      <polygon points="-130,-20 0,-80 130,-20" fill="url(#logoGradient)"/>
      
      <!-- Marketplace stalls -->
      <rect x="-80" y="20" width="30" height="60" rx="5" fill="rgba(0,255,255,0.8)"/>
      <rect x="-20" y="20" width="30" height="60" rx="5" fill="rgba(138,43,226,0.8)"/>
      <rect x="40" y="20" width="30" height="60" rx="5" fill="rgba(0,191,255,0.8)"/>
    </g>
    
    <!-- Delivery truck -->
    <g transform="translate(150,100)" fill="url(#logoGradient)" filter="url(#glow)">
      <rect x="0" y="0" width="60" height="30" rx="5"/>
      <rect x="50" y="-10" width="25" height="20" rx="3"/>
      <circle cx="15" cy="35" r="8" fill="#ffffff"/>
      <circle cx="50" cy="35" r="8" fill="#ffffff"/>
    </g>
    
    <!-- Community connection lines -->
    <g stroke="url(#logoGradient)" stroke-width="3" fill="none" opacity="0.6">
      <path d="M -200,-50 Q -250,-100 -180,-150"/>
      <path d="M 200,-50 Q 250,-100 180,-150"/>
      <path d="M -200,50 Q -250,100 -180,150"/>
      <path d="M 200,50 Q 250,100 180,150"/>
    </g>
    
    <!-- Community nodes -->
    <circle cx="-180" cy="-150" r="15" fill="url(#logoGradient)" filter="url(#glow)"/>
    <circle cx="180" cy="-150" r="15" fill="url(#logoGradient)" filter="url(#glow)"/>
    <circle cx="-180" cy="150" r="15" fill="url(#logoGradient)" filter="url(#glow)"/>
    <circle cx="180" cy="150" r="15" fill="url(#logoGradient)" filter="url(#glow)"/>
    
    <!-- MarketPace text -->
    <text x="0" y="280" text-anchor="middle" fill="url(#logoGradient)" font-family="Arial, sans-serif" font-size="48" font-weight="bold" filter="url(#glow)">MarketPace</text>
    <text x="0" y="320" text-anchor="middle" fill="rgba(0,255,255,0.8)" font-family="Arial, sans-serif" font-size="24" font-weight="normal">Community Commerce</text>
  </g>
  
  <!-- Floating particles -->
  <g fill="rgba(0,255,255,0.4)" opacity="0.6">
    <circle cx="150" cy="200" r="3"/>
    <circle cx="800" cy="300" r="2"/>
    <circle cx="200" cy="700" r="4"/>
    <circle cx="900" cy="600" r="3"/>
    <circle cx="100" cy="900" r="2"/>
    <circle cx="850" cy="150" r="3"/>
  </g>
  
  <g fill="rgba(138,43,226,0.4)" opacity="0.6">
    <circle cx="300" cy="150" r="2"/>
    <circle cx="700" cy="250" r="3"/>
    <circle cx="150" cy="800" r="2"/>
    <circle cx="750" cy="750" r="4"/>
    <circle cx="50" cy="450" r="3"/>
    <circle cx="950" cy="800" r="2"/>
  </g>
</svg>